<svg width="181" height="181" viewBox="0 0 181 181" fill="none" xmlns="http://www.w3.org/2000/svg">
  <path fill-rule="evenodd" clip-rule="evenodd" d="M158.353 82.7629H158.375C162.531 82.7629 165.909 86.1265 165.917 90.2819C165.977 110.426 158.187 129.393 143.978 143.677C129.777 157.961 110.863 165.857 90.719 165.917H90.5003C70.4319 165.917 51.5551 158.134 37.324 143.979C23.0401 129.778 15.1439 110.863 15.0836 90.7194C15.0233 70.568 22.8138 51.6083 37.0223 37.3244C51.2233 23.0404 70.1378 15.1443 90.2816 15.084C96.2772 15.1745 102.386 15.7778 108.238 17.1806C112.281 18.161 114.777 22.2335 113.796 26.2834C112.824 30.3257 108.728 32.8144 104.701 31.8491C100.018 30.7179 95.0479 30.2427 90.3268 30.1673C74.2103 30.2126 59.0741 36.5325 47.7164 47.9581C36.3511 59.3837 30.1217 74.5576 30.1669 90.6741C30.2122 106.791 36.5321 121.919 47.9577 133.285C59.3456 144.605 74.4441 150.834 90.5003 150.834H90.6737C106.79 150.789 121.926 144.469 133.284 133.043C144.649 121.61 150.879 106.444 150.834 90.3272C150.826 86.1642 154.19 82.7704 158.353 82.7629ZM62.5431 85.1679C65.4919 82.2191 70.2582 82.2191 73.207 85.1679L90.1305 102.091L137.62 47.8216C140.366 44.7069 145.124 44.3751 148.262 47.1202C151.391 49.8578 151.708 54.6242 148.963 57.7615L96.1714 118.095C94.7988 119.664 92.838 120.591 90.7489 120.667H90.5C88.5015 120.667 86.5859 119.875 85.1681 118.457L62.5431 95.8318C59.5943 92.883 59.5943 88.1167 62.5431 85.1679Z" fill="#DB0382"/>
  <mask id="mask0_18_180" style="mask-type:alpha" x="15" y="15" width="151" height="151">
    <path fill-rule="evenodd" clip-rule="evenodd" d="M158.353 82.7629H158.375C162.531 82.7629 165.909 86.1265 165.917 90.2819C165.977 110.426 158.187 129.393 143.978 143.677C129.777 157.961 110.863 165.857 90.719 165.917H90.5003C70.4319 165.917 51.5551 158.134 37.324 143.979C23.0401 129.778 15.1439 110.863 15.0836 90.7194C15.0233 70.568 22.8138 51.6083 37.0223 37.3244C51.2233 23.0404 70.1378 15.1443 90.2816 15.084C96.2772 15.1745 102.386 15.7778 108.238 17.1806C112.281 18.161 114.777 22.2335 113.796 26.2834C112.824 30.3257 108.728 32.8144 104.701 31.8491C100.018 30.7179 95.0479 30.2427 90.3268 30.1673C74.2103 30.2126 59.0741 36.5325 47.7164 47.9581C36.3511 59.3837 30.1217 74.5576 30.1669 90.6741C30.2122 106.791 36.5321 121.919 47.9577 133.285C59.3456 144.605 74.4441 150.834 90.5003 150.834H90.6737C106.79 150.789 121.926 144.469 133.284 133.043C144.649 121.61 150.879 106.444 150.834 90.3272C150.826 86.1642 154.19 82.7704 158.353 82.7629ZM62.5431 85.1679C65.4919 82.2191 70.2582 82.2191 73.207 85.1679L90.1305 102.091L137.62 47.8216C140.366 44.7069 145.124 44.3751 148.262 47.1202C151.391 49.8578 151.708 54.6242 148.963 57.7615L96.1714 118.095C94.7988 119.664 92.838 120.591 90.7489 120.667H90.5C88.5015 120.667 86.5859 119.875 85.1681 118.457L62.5431 95.8318C59.5943 92.883 59.5943 88.1167 62.5431 85.1679Z" fill="white"/>
  </mask>
  <g mask="url(#mask0_18_180)">
  </g>
</svg>
